<svg xmlns="http://www.w3.org/2000/svg" width="920" height="360" viewBox="0 0 920 360">
  <rect width="100%" height="100%" rx="18" fill="#0b0f14"/>
  <rect x="1" y="1" width="918" height="358" rx="17" fill="none" stroke="#263241"/>
  <text x="24" y="36" font-size="24" font-family="Inter, ui-sans-serif, system-ui, -apple-system, Segoe UI, sans-serif" font-weight="700" fill="#f7fafc">Engineering AI Stack Coverage</text>
  <text x="24" y="62" font-size="14" font-family="Inter, ui-sans-serif, system-ui, -apple-system, Segoe UI, sans-serif" fill="#91a4bb">Approximate curated-entry coverage across resource pages</text>
  <g font-family="Inter, ui-sans-serif, system-ui, -apple-system, Segoe UI, sans-serif">
    <text x="24" y="106" font-size="15" fill="#d7dee8">Surrogates</text><rect x="210" y="91" width="560" height="18" rx="5" fill="#a78bfa" opacity="0.88"/><text x="782" y="106" font-size="14" fill="#9fb1c7">157</text><text x="24" y="140" font-size="15" fill="#d7dee8">Agents / Workflow</text><rect x="210" y="125" width="313" height="18" rx="5" fill="#a78bfa" opacity="0.88"/><text x="535" y="140" font-size="14" fill="#9fb1c7">88</text><text x="24" y="174" font-size="15" fill="#d7dee8">Geometry / CAD</text><rect x="210" y="159" width="274" height="18" rx="5" fill="#a78bfa" opacity="0.88"/><text x="496" y="174" font-size="14" fill="#9fb1c7">77</text><text x="24" y="208" font-size="15" fill="#d7dee8">Solvers / CFD</text><rect x="210" y="193" width="135" height="18" rx="5" fill="#a78bfa" opacity="0.88"/><text x="357" y="208" font-size="14" fill="#9fb1c7">38</text><text x="24" y="242" font-size="15" fill="#d7dee8">Validation / Ops</text><rect x="210" y="227" width="124" height="18" rx="5" fill="#a78bfa" opacity="0.88"/><text x="346" y="242" font-size="14" fill="#9fb1c7">35</text><text x="24" y="276" font-size="15" fill="#d7dee8">Data / Benchmarks</text><rect x="210" y="261" width="39" height="18" rx="5" fill="#a78bfa" opacity="0.88"/><text x="261" y="276" font-size="14" fill="#9fb1c7">11</text><text x="24" y="310" font-size="15" fill="#d7dee8">Visualization</text><rect x="210" y="295" width="21" height="18" rx="5" fill="#a78bfa" opacity="0.88"/><text x="243" y="310" font-size="14" fill="#9fb1c7">6</text>
  </g>
</svg>
