<svg xmlns="http://www.w3.org/2000/svg" width="920" height="394" viewBox="0 0 920 394">
  <rect width="100%" height="100%" rx="18" fill="#0b0f14"/>
  <rect x="1" y="1" width="918" height="392" rx="17" fill="none" stroke="#263241"/>
  <text x="24" y="36" font-size="24" font-family="Inter, ui-sans-serif, system-ui, -apple-system, Segoe UI, sans-serif" font-weight="700" fill="#f7fafc">Topic Momentum</text>
  <text x="24" y="62" font-size="14" font-family="Inter, ui-sans-serif, system-ui, -apple-system, Segoe UI, sans-serif" fill="#91a4bb">Keyword/tag signal count from recent daily radar notes</text>
  <g font-family="Inter, ui-sans-serif, system-ui, -apple-system, Segoe UI, sans-serif">
    <text x="24" y="106" font-size="15" fill="#d7dee8">CAD / Geometry AI</text><rect x="210" y="91" width="560" height="18" rx="5" fill="#38bdf8" opacity="0.88"/><text x="782" y="106" font-size="14" fill="#9fb1c7">582</text><text x="24" y="140" font-size="15" fill="#d7dee8">CAE Agents</text><rect x="210" y="125" width="203" height="18" rx="5" fill="#38bdf8" opacity="0.88"/><text x="425" y="140" font-size="14" fill="#9fb1c7">212</text><text x="24" y="174" font-size="15" fill="#d7dee8">CFD Surrogates</text><rect x="210" y="159" width="137" height="18" rx="5" fill="#38bdf8" opacity="0.88"/><text x="359" y="174" font-size="14" fill="#9fb1c7">143</text><text x="24" y="208" font-size="15" fill="#d7dee8">Neural Operators</text><rect x="210" y="193" width="118" height="18" rx="5" fill="#38bdf8" opacity="0.88"/><text x="340" y="208" font-size="14" fill="#9fb1c7">123</text><text x="24" y="242" font-size="15" fill="#d7dee8">Validation / UQ</text><rect x="210" y="227" width="107" height="18" rx="5" fill="#38bdf8" opacity="0.88"/><text x="329" y="242" font-size="14" fill="#9fb1c7">112</text><text x="24" y="276" font-size="15" fill="#d7dee8">Thermal / Multiphysics</text><rect x="210" y="261" width="56" height="18" rx="5" fill="#38bdf8" opacity="0.88"/><text x="278" y="276" font-size="14" fill="#9fb1c7">59</text><text x="24" y="310" font-size="15" fill="#d7dee8">Turbulence / Flow Gen</text><rect x="210" y="295" width="27" height="18" rx="5" fill="#38bdf8" opacity="0.88"/><text x="249" y="310" font-size="14" fill="#9fb1c7">29</text><text x="24" y="344" font-size="15" fill="#d7dee8">GPU / Deployment</text><rect x="210" y="329" width="23" height="18" rx="5" fill="#38bdf8" opacity="0.88"/><text x="245" y="344" font-size="14" fill="#9fb1c7">24</text>
  </g>
</svg>
